<?xml version="1.0" standalone="no"?>
<!DOCTYPE svg PUBLIC "-//W3C//DTD SVG 20010904//EN"
 "http://www.w3.org/TR/2001/REC-SVG-20010904/DTD/svg10.dtd">
<svg version="1.0" xmlns="http://www.w3.org/2000/svg"
 width="300.000000pt" height="219.000000pt" viewBox="0 0 300.000000 219.000000"
 preserveAspectRatio="xMidYMid meet">
<metadata>
Created by potrace 1.10, written by Peter Selinger 2001-2011
</metadata>
<g transform="translate(0.000000,219.000000) scale(0.100000,-0.100000)"
fill="#000000" stroke="none">
<path d="M0 2163 c0 -14 1 -24 3 -22 1 2 11 14 21 27 19 22 19 22 -2 22 -17 0
-22 -6 -22 -27z"/>
<path d="M1510 1777 c-14 -18 -126 -151 -250 -297 -123 -146 -294 -348 -380
-449 -190 -226 -256 -303 -390 -462 -137 -163 -139 -165 -119 -153 14 8 263
196 893 671 148 112 275 203 282 203 7 0 59 -35 116 -78 57 -43 314 -237 573
-432 259 -194 476 -358 484 -364 30 -23 -6 23 -224 279 -411 484 -550 648
-615 726 -264 316 -326 388 -335 388 -5 0 -21 -14 -35 -32z"/>
<path d="M1483 1138 c-34 -57 -115 -193 -180 -303 -65 -110 -140 -237 -167
-281 -52 -89 -60 -94 -152 -94 -24 0 -44 -4 -44 -10 0 -6 30 -10 69 -10 81 0
55 -19 350 255 95 88 179 160 186 160 8 0 90 -70 181 -155 92 -85 194 -179
226 -208 l59 -52 69 0 c81 0 97 19 18 21 -29 1 -63 4 -75 7 -16 5 -67 82 -179
272 -197 334 -296 500 -298 500 -2 0 -30 -46 -63 -102z"/>
</g>
</svg>
